<svg width="24" height="24" viewBox="0 0 24 24" fill="none" xmlns="http://www.w3.org/2000/svg">
<path d="M6.11765 22H4.94118L5.64706 21.05C6.11765 20.3969 6.41176 19.5656 6.58824 18.5563C3.64706 17.1906 2 14.6375 2 11.3125C2 6.20625 5.82353 3 12 3C18.1765 3 22 6.20625 22 11.3125C22 16.5375 18.2353 19.625 12 19.625H11.5882C10.6471 20.7531 9 22 6.11765 22ZM12 4.1875C6.47059 4.1875 3.17647 6.85937 3.17647 11.3125C3.17647 15.1125 5.47059 16.8938 7.41177 17.6656L7.82353 17.8437L7.76471 18.3187C7.64706 19.2687 7.47059 20.1 7.11765 20.8125C9.05882 20.575 10.1765 19.5656 10.8235 18.7344L11 18.4969H12C19.9412 18.4969 20.8235 13.5094 20.8235 11.3719C20.8235 6.85938 17.5294 4.1875 12 4.1875Z" fill="black"/>
</svg>
