<svg width="24" height="24" viewBox="0 0 24 24" fill="none" xmlns="http://www.w3.org/2000/svg">
<path d="M13.5599 8.54348L12.8055 9.87164L10.2257 5.3282L2.306 19.274H7.66815C7.66815 20.0075 8.25298 20.6021 8.97441 20.6021H2.306C1.83937 20.6021 1.40822 20.3489 1.17494 19.9379C0.941664 19.527 0.941687 19.0208 1.175 18.6099L9.09469 4.66412C9.32802 4.25316 9.75926 4 10.226 4C10.6926 4 11.1239 4.25316 11.3572 4.66412L13.5599 8.54348V8.54348Z" fill="#00C58E"/>
<path d="M19.2769 18.6099L14.3143 9.87165L13.5599 8.54348L12.8055 9.87165L7.84343 18.6099C7.61011 19.0208 7.61009 19.527 7.84337 19.9379C8.07665 20.3489 8.50779 20.6021 8.97443 20.6021H18.1443C18.611 20.6021 19.0424 20.3491 19.2758 19.9382C19.5092 19.5272 19.5092 19.0209 19.2758 18.6099H19.2769ZM8.97443 19.274L13.5599 11.1998L18.1443 19.274H8.97443H8.97443Z" fill="#2F495E"/>
<path d="M22.825 19.938C22.5917 20.3489 22.1606 20.6021 21.694 20.6021H18.1443C18.8657 20.6021 19.4505 20.0075 19.4505 19.274H21.6913L15.3331 8.07696L14.3142 9.87164L13.5599 8.54348L14.2021 7.41287C14.4354 7.00192 14.8667 6.74875 15.3334 6.74875C15.8001 6.74875 16.2313 7.00192 16.4646 7.41287L22.825 18.6099C23.0583 19.0208 23.0583 19.5271 22.825 19.938V19.938Z" fill="#108775"/>
</svg>
