<svg width="24" height="24" viewBox="0 0 24 24" fill="none" xmlns="http://www.w3.org/2000/svg">
<path d="M20.7386 8.2367C20.7526 8.42263 20.7526 8.6086 20.7526 8.79453C20.7526 14.4656 16.2158 21 7.92388 21C5.36929 21 2.99621 20.2961 1 19.0742C1.36296 19.1141 1.71191 19.1273 2.08883 19.1273C4.19667 19.1273 6.13706 18.45 7.68657 17.2946C5.70432 17.2547 4.04314 16.0195 3.4708 14.3195C3.75001 14.3593 4.02918 14.3859 4.32236 14.3859C4.72717 14.3859 5.13202 14.3328 5.5089 14.2399C3.44291 13.8414 1.89337 12.1148 1.89337 10.0297V9.97657C2.4936 10.2953 3.19163 10.4945 3.93143 10.5211C2.71695 9.75075 1.9213 8.43592 1.9213 6.94841C1.9213 6.15155 2.14461 5.42108 2.53549 4.78357C4.75505 7.3867 8.09138 9.08667 11.8325 9.27264C11.7627 8.95389 11.7208 8.62189 11.7208 8.28985C11.7208 5.92576 13.731 4 16.2297 4C17.5279 4 18.7005 4.51797 19.5241 5.35469C20.5431 5.16876 21.5203 4.81015 22.3858 4.31875C22.0507 5.31487 21.3388 6.15159 20.4036 6.6828C21.3109 6.58988 22.1904 6.35076 23 6.01876C22.3859 6.86873 21.6181 7.62573 20.7386 8.2367V8.2367Z" fill="currentColor"/>
</svg>
