<svg width="24" height="24" viewBox="0 0 24 24" fill="none" xmlns="http://www.w3.org/2000/svg">
<path d="M21.9035 20.8367L12.6183 3.38776C12.4799 3.12844 12.2411 3 12 3C11.7589 3 11.5179 3.12844 11.3817 3.38776L2.09654 20.8367C1.822 21.3554 2.16573 22 2.71481 22H21.2852C21.8343 22 22.178 21.3554 21.9035 20.8367ZM11.2858 10.1735C11.2858 10.0668 11.3661 9.97959 11.4643 9.97959H12.5357C12.6339 9.97959 12.7142 10.0668 12.7142 10.1735V14.6327C12.7142 14.7393 12.6339 14.8265 12.5357 14.8265H11.4643C11.3661 14.8265 11.2858 14.7393 11.2858 14.6327V10.1735ZM12 18.7041C11.7196 18.6979 11.4527 18.5726 11.2564 18.3551C11.0602 18.1376 10.9503 17.8453 10.9503 17.5408C10.9503 17.2363 11.0602 16.944 11.2564 16.7265C11.4527 16.5091 11.7196 16.3838 12 16.3776C12.2804 16.3838 12.5473 16.5091 12.7436 16.7265C12.9398 16.944 13.0497 17.2363 13.0497 17.5408C13.0497 17.8453 12.9398 18.1376 12.7436 18.3551C12.5473 18.5726 12.2804 18.6979 12 18.7041V18.7041Z" fill="black"/>
</svg>
